HIERARCHY
ROOT Hips
{
    OFFSET   0.000000   0.000000   0.000000
    CHANNELS 6 Xposition Yposition Zposition Zrotation Xrotation Yrotation
    JOINT Chest
    {
        OFFSET   0.000000   8.007230   0.000000
        CHANNELS 3 Zrotation Xrotation Yrotation
        JOINT Chest2
        {
            OFFSET   0.000000  22.077100   0.000000
            CHANNELS 3 Zrotation Xrotation Yrotation
            JOINT Neck
            {
                OFFSET   0.000000  23.254800  -0.000021
                CHANNELS 3 Zrotation Xrotation Yrotation
                JOINT Head
                {
                    OFFSET   0.000000  14.370000   1.956610
                    CHANNELS 3 Zrotation Xrotation Yrotation
                    End Site
                    {
                        OFFSET   0.000000  19.566000   0.000000
                    }
                }
            }
            JOINT LeftCollar
            {
                OFFSET   3.911900  19.017000  -0.467063
                CHANNELS 3 Zrotation Xrotation Yrotation
                JOINT LeftShoulder
                {
                    OFFSET  10.383700   0.000000   0.000000
                    CHANNELS 3 Zrotation Xrotation Yrotation
                    JOINT LeftElbow
                    {
                        OFFSET  26.662100   0.001529   0.000325
                        CHANNELS 3 Zrotation Xrotation Yrotation
                        JOINT LeftWrist
                        {
                            OFFSET  28.869000  -0.000011  -0.000096
                            CHANNELS 3 Zrotation Xrotation Yrotation
                            JOINT LeftFinger0
                            {
                                OFFSET   2.044650  -2.323460   3.252850
                                CHANNELS 3 Zrotation Xrotation Yrotation
                                JOINT LeftFinger01
                                {
                                    OFFSET   3.088130   0.000000   0.000000
                                    CHANNELS 3 Zrotation Xrotation Yrotation
                                    JOINT LeftFinger02
                                    {
                                        OFFSET   2.639460   0.000000   0.000000
                                        CHANNELS 3 Zrotation Xrotation Yrotation
                                        End Site
                                        {
                                            OFFSET   2.582190   0.000000   0.000000
                                        }
                                    }
                                }
                            }
                            JOINT LeftFinger1
                            {
                                OFFSET   8.364480   0.000000   3.252850
                                CHANNELS 3 Zrotation Xrotation Yrotation
                                JOINT LeftFinger11
                                {
                                    OFFSET   4.646930   0.000000   0.000000
                                    CHANNELS 3 Zrotation Xrotation Yrotation
                                    JOINT LeftFinger12
                                    {
                                        OFFSET   2.323460   0.000000   0.000000
                                        CHANNELS 3 Zrotation Xrotation Yrotation
                                        End Site
                                        {
                                            OFFSET   2.273050   0.000000   0.000000
                                        }
                                    }
                                }
                            }
                            JOINT LeftFinger2
                            {
                                OFFSET   8.364480   0.000016   1.078090
                                CHANNELS 3 Zrotation Xrotation Yrotation
                                JOINT LeftFinger21
                                {
                                    OFFSET   5.111620   0.000000   0.000000
                                    CHANNELS 3 Zrotation Xrotation Yrotation
                                    JOINT LeftFinger22
                                    {
                                        OFFSET   2.788160   0.000017   0.000000
                                        CHANNELS 3 Zrotation Xrotation Yrotation
                                        End Site
                                        {
                                            OFFSET   2.727660   0.000000   0.000000
                                        }
                                    }
                                }
                            }
                            JOINT LeftFinger3
                            {
                                OFFSET   7.899780   0.000015  -1.078090
                                CHANNELS 3 Zrotation Xrotation Yrotation
                                JOINT LeftFinger31
                                {
                                    OFFSET   4.646920   0.000000   0.000000
                                    CHANNELS 3 Zrotation Xrotation Yrotation
                                    JOINT LeftFinger32
                                    {
                                        OFFSET   2.323470   0.000000   0.000000
                                        CHANNELS 3 Zrotation Xrotation Yrotation
                                        End Site
                                        {
                                            OFFSET   2.273050   0.000000   0.000000
                                        }
                                    }
                                }
                            }
                            JOINT LeftFinger4
                            {
                                OFFSET   7.435090   0.000000  -3.252850
                                CHANNELS 3 Zrotation Xrotation Yrotation
                                JOINT LeftFinger41
                                {
                                    OFFSET   3.717550   0.000000   0.000000
                                    CHANNELS 3 Zrotation Xrotation Yrotation
                                    JOINT LeftFinger42
                                    {
                                        OFFSET   1.858760   0.000000   0.000000
                                        CHANNELS 3 Zrotation Xrotation Yrotation
                                        End Site
                                        {
                                            OFFSET   1.818440   0.000000   0.000000
                                        }
                                    }
                                }
                            }
                        }
                    }
                }
            }
            JOINT RightCollar
            {
                OFFSET  -3.911900  19.017000  -0.467062
                CHANNELS 3 Zrotation Xrotation Yrotation
                JOINT RightShoulder
                {
                    OFFSET -10.383700   0.000015   0.000000
                    CHANNELS 3 Zrotation Xrotation Yrotation
                    JOINT RightElbow
                    {
                        OFFSET -26.662100   0.001341   0.000385
                        CHANNELS 3 Zrotation Xrotation Yrotation
                        JOINT RightWrist
                        {
                            OFFSET -28.869000   0.000025  -0.000080
                            CHANNELS 3 Zrotation Xrotation Yrotation
                            JOINT RightFinger0
                            {
                                OFFSET  -2.044650  -2.323490   3.252850
                                CHANNELS 3 Zrotation Xrotation Yrotation
                                JOINT RightFinger01
                                {
                                    OFFSET  -3.088130   0.000000   0.000000
                                    CHANNELS 3 Zrotation Xrotation Yrotation
                                    JOINT RightFinger02
                                    {
                                        OFFSET  -2.639460   0.000000   0.000000
                                        CHANNELS 3 Zrotation Xrotation Yrotation
                                        End Site
                                        {
                                            OFFSET  -2.582190   0.000000   0.000000
                                        }
                                    }
                                }
                            }
                            JOINT RightFinger1
                            {
                                OFFSET  -8.364480   0.000000   3.252850
                                CHANNELS 3 Zrotation Xrotation Yrotation
                                JOINT RightFinger11
                                {
                                    OFFSET  -4.646930   0.000000   0.000000
                                    CHANNELS 3 Zrotation Xrotation Yrotation
                                    JOINT RightFinger12
                                    {
                                        OFFSET  -2.323470   0.000000   0.000000
                                        CHANNELS 3 Zrotation Xrotation Yrotation
                                        End Site
                                        {
                                            OFFSET  -2.273050   0.000000   0.000000
                                        }
                                    }
                                }
                            }
                            JOINT RightFinger2
                            {
                                OFFSET  -8.364480   0.000000   1.078090
                                CHANNELS 3 Zrotation Xrotation Yrotation
                                JOINT RightFinger21
                                {
                                    OFFSET  -5.111610   0.000000   0.000000
                                    CHANNELS 3 Zrotation Xrotation Yrotation
                                    JOINT RightFinger22
                                    {
                                        OFFSET  -2.788160   0.000000   0.000000
                                        CHANNELS 3 Zrotation Xrotation Yrotation
                                        End Site
                                        {
                                            OFFSET  -2.727660   0.000000   0.000000
                                        }
                                    }
                                }
                            }
                            JOINT RightFinger3
                            {
                                OFFSET  -7.899780   0.000000  -1.078090
                                CHANNELS 3 Zrotation Xrotation Yrotation
                                JOINT RightFinger31
                                {
                                    OFFSET  -4.646920   0.000000   0.000000
                                    CHANNELS 3 Zrotation Xrotation Yrotation
                                    JOINT RightFinger32
                                    {
                                        OFFSET  -2.323470   0.000000   0.000000
                                        CHANNELS 3 Zrotation Xrotation Yrotation
                                        End Site
                                        {
                                            OFFSET  -2.273050   0.000000   0.000000
                                        }
                                    }
                                }
                            }
                            JOINT RightFinger4
                            {
                                OFFSET  -7.435090   0.000000  -3.252850
                                CHANNELS 3 Zrotation Xrotation Yrotation
                                JOINT RightFinger41
                                {
                                    OFFSET  -3.717550   0.000000   0.000000
                                    CHANNELS 3 Zrotation Xrotation Yrotation
                                    JOINT RightFinger42
                                    {
                                        OFFSET  -1.858770   0.000000   0.000000
                                        CHANNELS 3 Zrotation Xrotation Yrotation
                                        End Site
                                        {
                                            OFFSET  -1.818440   0.000000   0.000000
                                        }
                                    }
                                }
                            }
                        }
                    }
                }
            }
        }
    }
    JOINT LeftHip
    {
        OFFSET   9.783010   0.000000   0.000000
        CHANNELS 3 Zrotation Xrotation Yrotation
        JOINT LeftKnee
        {
            OFFSET   0.000070 -41.789100   0.000028
            CHANNELS 3 Zrotation Xrotation Yrotation
            JOINT LeftAnkle
            {
                OFFSET   0.000087 -41.133200  -0.000100
                CHANNELS 3 Zrotation Xrotation Yrotation
                JOINT LeftToe
                {
                    OFFSET   0.000000  -6.358960  14.674500
                    CHANNELS 3 Zrotation Xrotation Yrotation
                    End Site
                    {
                        OFFSET   0.000000   0.000000   3.913200
                    }
                }
            }
        }
    }
    JOINT RightHip
    {
        OFFSET  -9.783020   0.000000   0.000000
        CHANNELS 3 Zrotation Xrotation Yrotation
        JOINT RightKnee
        {
            OFFSET   0.000044 -41.789100  -0.000870
            CHANNELS 3 Zrotation Xrotation Yrotation
            JOINT RightAnkle
            {
                OFFSET  -0.000090 -41.133200  -0.000245
                CHANNELS 3 Zrotation Xrotation Yrotation
                JOINT RightToe
                {
                    OFFSET   0.000000  -6.358960  14.674500
                    CHANNELS 3 Zrotation Xrotation Yrotation
                    End Site
                    {
                        OFFSET   0.000000   0.000000   3.913200
                    }
                }
            }
        }
    }
}
MOTION
Frames: 6
Frame Time:   0.016667
  0.496109  89.556000   1.140560  -1.774280  -4.994680  -0.106186   1.012160   1.801430  -0.521805   2.042230   3.593300  -1.076180  -0.156177   1.498500  -0.003575  -0.257431   3.038120   3.676150  -5.796820   0.322246   1.576310 -77.411500  14.746400   1.173380  -0.829396  -8.379380 -12.299400   2.886870  -9.505450   2.704120  38.945100  32.083800 -64.477800 -30.491900  -0.002461   0.001983 -10.245900   0.004221   0.001050 -10.021800   0.797084  -4.500820  -8.225310  -0.003377  -0.008026  -5.757670  -0.001874  -0.005771 -15.627100  -0.015453   0.055353 -15.627200  -0.005248  -0.000555 -10.407700  -0.001860  -0.002904 -13.249300  -0.013145   0.055945 -13.249300  -0.005085   0.000634  -8.824020  -0.003935  -0.000362 -16.929700  -0.016727   0.054980 -25.394600  -0.003034  -0.001710 -16.912800  -0.001486  -0.002934   9.410300   0.951341   6.549280  70.221900   2.178290  -5.757370  -0.025309 -10.274400   6.258760  -3.172760  -2.589820   3.434800 -32.888300  15.300100  57.909300  28.242900   0.001357  -0.000997   9.121450   0.000680   0.001325  14.007600   1.891770   7.538050  11.562800  -0.007044   0.005094   8.093930  -0.006270   0.004488  18.758000   2.512580   7.355410  18.919600  -0.000689   0.001196  12.600400  -0.006833   0.000067   8.942630   1.144900   7.236670   9.015050  -0.002418   0.006364   6.004020  -0.000434   0.009600  14.562600   1.851520   7.089610  22.015900  -0.001592   0.004568  14.662600  -0.011482   0.003593   0.961654   7.578760   3.580270   1.240040   0.275521   7.241150  -1.131380  -3.777120   2.822430  -0.000000   0.000000  -0.000000   1.960700   6.386690  -0.650966  -0.681381   1.590610  -6.316700  -0.547791  -3.946250  -1.709360  -0.000000   0.000000   0.000000
  0.503233  89.556100   1.140530  -1.778810  -5.002550  -0.114554   1.012210   1.813090  -0.521886   2.042410   3.616600  -1.076560  -0.150975   1.501720  -0.003569  -0.248873   3.044670   3.690770  -5.793110   0.320810   1.576310 -77.395500  14.746400   1.173820  -0.845736  -8.378920 -12.313800   2.887720  -9.511480   2.704640  38.943600  32.084600 -64.472100 -30.498300  -0.002455   0.001984 -10.249100   0.004209   0.001044 -10.039300   0.792630  -4.467970  -8.239310  -0.003375  -0.008028  -5.767490  -0.001875  -0.005772 -15.648200  -0.028195   0.100632 -15.648200  -0.005244  -0.000550 -10.421700  -0.001864  -0.002899 -13.275600  -0.024009   0.101712 -13.275500  -0.005079   0.000639  -8.841500  -0.003939  -0.000359 -16.955500  -0.030497   0.099957 -25.433400  -0.003028  -0.001703 -16.938600  -0.001494  -0.002930   9.414010   0.951346   6.563120  70.186200   2.177790  -5.777260  -0.027348 -10.265300   6.254670  -3.218430  -2.610610   3.424690 -32.873800  15.320900  57.893600  28.299100   0.001354  -0.000997   9.149550   0.000681   0.001318  14.030900   1.897350   7.547090  11.582300  -0.007040   0.005094   8.107610  -0.006269   0.004487  18.776500   2.518280   7.364180  18.938700  -0.000685   0.001193  12.613100  -0.006833   0.000068   8.974500   1.154000   7.267420   9.047810  -0.002414   0.006360   6.025850  -0.000433   0.009595  14.571400   1.860730   7.120080  22.030800  -0.001592   0.004558  14.672500  -0.011486   0.003582   0.960264   7.609970   3.585300   1.238220   0.234774   7.245280  -1.125110  -3.759080   2.821710   0.000000   0.000000   0.000000   1.960560   6.395900  -0.646512  -0.681452   1.586090  -6.316700  -0.542618  -3.944850  -1.705210   0.000000   0.000000   0.000000
  0.514892  89.556100   1.140500  -1.786420  -5.015590  -0.126236   1.012330   1.832360  -0.522055   2.042890   3.655100  -1.077260  -0.140870   1.508900  -0.003550  -0.232226   3.059300   3.712560  -5.786660   0.317384   1.576320 -77.370900  14.746400   1.174260  -0.868534  -8.378470 -12.328300   2.889130  -9.519320   2.707990  38.939400  32.090100 -64.461300 -30.515200  -0.002449   0.001989 -10.257600   0.004198   0.001037 -10.071900   0.786562  -4.419390  -8.265460  -0.003371  -0.008031  -5.785820  -0.001880  -0.005772 -15.680800  -0.046735   0.166466 -15.680800  -0.005233  -0.000540 -10.443400  -0.001874  -0.002885 -13.314600  -0.039819   0.168255 -13.314600  -0.005063   0.000652  -8.867510  -0.003951  -0.000351 -16.991000  -0.050522   0.165354 -25.486700  -0.003012  -0.001685 -16.974100  -0.001513  -0.002919   9.420840   0.951333   6.586500  70.120800   2.174680  -5.815840  -0.030857 -10.246900   6.247980  -3.283210  -2.638540   3.414610 -32.852000  15.349000  57.881200  28.381700   0.001351  -0.001001   9.190830   0.000681   0.001312  14.065600   1.907600   7.568140  11.611500  -0.007034   0.005094   8.128060  -0.006268   0.004485  18.803000   2.529200   7.384670  18.966300  -0.000676   0.001186  12.631500  -0.006836   0.000068   9.025820   1.169560   7.322330   9.100690  -0.002404   0.006349   6.061080  -0.000431   0.009582  14.586600   1.877110   7.174390  22.056500  -0.001589   0.004532  14.689600  -0.011496   0.003556   0.960084   7.649980   3.593380   1.232810   0.194027   7.251990  -1.118970  -3.741060   2.818960  -0.000000   0.000000   0.000000   1.960220   6.411020  -0.638427  -0.681520   1.581560  -6.316760  -0.534588  -3.943450  -1.699320  -0.000000   0.000000  -0.000000
  0.523582  89.556200   1.143100  -1.792660  -5.025410  -0.131123   1.012700   1.847140  -0.522158   2.043830   3.684650  -1.077620  -0.129076   1.518560  -0.003510  -0.212732   3.079100   3.722790  -5.779940   0.311558   1.576960 -77.355400  14.748300   1.172160  -0.879073  -8.382650 -12.328200   2.889150  -9.521300   2.728760  38.937200  32.115400 -64.455900 -30.546300  -0.002457   0.002012 -10.273300   0.004208   0.001047 -10.107800   0.784567  -4.389350  -8.294610  -0.003366  -0.008032  -5.806250  -0.001886  -0.005773 -15.701100  -0.057190   0.203403 -15.701200  -0.005219  -0.000525 -10.456900  -0.001890  -0.002860 -13.334300  -0.048741   0.205590 -13.334300  -0.005035   0.000673  -8.880660  -0.003971  -0.000337 -16.999700  -0.061778   0.202055 -25.499900  -0.002986  -0.001655 -16.982900  -0.001545  -0.002903   9.428810   0.951292   6.605740  70.056300   2.163260  -5.860010  -0.034040 -10.224600   6.243180  -3.310610  -2.643290   3.417280 -32.833700  15.359300  57.891300  28.420400   0.001354  -0.001011   9.210200   0.000679   0.001326  14.084200   1.920270   7.607120  11.628000  -0.007025   0.005088   8.139640  -0.006260   0.004482  18.816300   2.544360   7.422810  18.981400  -0.000662   0.001173  12.641600  -0.006843   0.000068   9.065780   1.184580   7.384390   9.142280  -0.002391   0.006329   6.088760  -0.000428   0.009565  14.603500   1.896390   7.235160  22.085100  -0.001578   0.004489  14.708700  -0.011512   0.003518   0.964718   7.658090   3.599320   1.224580   0.212249   7.257370  -1.118800  -3.754160   2.813300  -0.000000   0.000000   0.000000   1.959680   6.421860  -0.630180  -0.681526   1.584520  -6.321510  -0.529651  -3.943860  -1.696990   0.000000   0.000000  -0.000000
  0.532382  89.556200   1.147610  -1.798830  -5.036040  -0.132697   1.013220   1.862240  -0.522512   2.045020   3.714860  -1.078760  -0.116949   1.530150  -0.003478  -0.192694   3.102750   3.733550  -5.775000   0.306327   1.579370 -77.340800  14.758000   1.165710  -0.887902  -8.391310 -12.327400   2.887000  -9.521400   2.755190  38.940300  32.142600 -64.464500 -30.575300  -0.002473   0.002041 -10.287700   0.004218   0.001065 -10.142000   0.784185  -4.375030  -8.322480  -0.003358  -0.008035  -5.825770  -0.001894  -0.005775 -15.719400  -0.061847   0.219785 -15.719600  -0.005201  -0.000505 -10.469200  -0.001912  -0.002829 -13.351700  -0.052716   0.222150 -13.351800  -0.004999   0.000701  -8.892310  -0.003998  -0.000319 -17.006700  -0.066778   0.218337 -25.510300  -0.002952  -0.001617 -16.989800  -0.001585  -0.002881   9.435260   0.951248   6.625600  69.982800   2.154370  -5.906850  -0.037107 -10.200100   6.237850  -3.326100  -2.648040   3.421030 -32.821100  15.372200  57.902500  28.453600   0.001360  -0.001026   9.226820   0.000677   0.001347  14.098000   1.929060   7.634100  11.640000  -0.007015   0.005078   8.148050  -0.006248   0.004479  18.821700   2.554310   7.449220  18.988000  -0.000643   0.001156  12.646000  -0.006853   0.000067   9.098360   1.196660   7.429940   9.176070  -0.002374   0.006303   6.111230  -0.000424   0.009543  14.613700   1.908880   7.280360  22.102800  -0.001563   0.004434  14.720500  -0.011533   0.003468   0.970598   7.661660   3.604720   1.215880   0.239178   7.261840  -1.118400  -3.773830   2.806100  -0.000000   0.000000   0.000000   1.959130   6.433940  -0.621923  -0.681411   1.587460  -6.330600  -0.524878  -3.944430  -1.695550  -0.000000   0.000000  -0.000000
  0.541997  89.556300   1.151470  -1.804860  -5.048680  -0.132643   1.013720   1.878480  -0.523735   2.046180   3.747300  -1.081650  -0.107494   1.542560  -0.003475  -0.177136   3.127810   3.750680  -5.774380   0.304905   1.583640 -77.325500  14.778500   1.153120  -0.894913  -8.400770 -12.318200   2.881210  -9.502460   2.769700  38.943900  32.160400 -64.488000 -30.584900  -0.002497   0.002060 -10.292200   0.004217   0.001084 -10.159600   0.789522  -4.399870  -8.337160  -0.003348  -0.008042  -5.836050  -0.001903  -0.005777 -15.735300  -0.051133   0.181542 -15.735500  -0.005178  -0.000483 -10.479800  -0.001938  -0.002791 -13.372900  -0.043602   0.183496 -13.373000  -0.004955   0.000734  -8.906400  -0.004031  -0.000296 -17.026000  -0.055211   0.180343 -25.539200  -0.002915  -0.001570 -17.009100  -0.001631  -0.002856   9.436170   0.951266   6.645940  69.899900   2.157170  -5.948980  -0.030738 -10.177100   6.232520  -3.332330  -2.675370   3.422720 -32.820600  15.403600  57.889700  28.495500   0.001365  -0.001044   9.247760   0.000685   0.001357  14.105800   1.929590   7.631930  11.646300  -0.007007   0.005071   8.152470  -0.006235   0.004475  18.821200   2.553590   7.447380  18.987300  -0.000623   0.001136  12.645500  -0.006863   0.000067   9.112060   1.199900   7.436540   9.189990  -0.002351   0.006272   6.120500  -0.000420   0.009513  14.610300   1.909340   7.287470  22.098000  -0.001549   0.004371  14.717200  -0.011559   0.003407   0.975519   7.671390   3.609100   1.207590   0.251969   7.263950  -1.118380  -3.783980   2.798850  -0.000000   0.000000   0.000000   1.958790   6.450040  -0.615157  -0.681199   1.585370  -6.341340  -0.519361  -3.944570  -1.693640  -0.000000   0.000000   0.000000
